<svg xmlns="http://www.w3.org/2000/svg" viewBox="0 -750 4498 1000" width="360" height="80">
  <g transform="scale(1, -1) translate(0, -250)">
    <g transform="translate(0, 0)"><path d="M210 -87Q199 -87 184.5 -83.5Q170 -80 156.0 -71.5Q142 -63 133.0 -47.5Q124 -32 124 -7Q124 28 141.0 85.5Q158 143 180 213Q197 267 213.0 325.0Q229 383 239.5 441.0Q250 499 250 552Q250 589 247.5 621.0Q245 653 232.5 672.5Q220 692 190 692Q162 692 142.5 675.5Q123 659 110.5 633.0Q98 607 92.5 578.0Q87 549 87 524Q87 491 96 470Q57 470 41.0 491.5Q25 513 25 542Q25 573 39.5 604.0Q54 635 79.5 661.5Q105 688 138.0 704.0Q171 720 208 720Q270 720 300.5 671.5Q331 623 331 542Q331 469 310.5 387.5Q290 306 265 229Q249 179 234.5 133.5Q220 88 211.0 50.0Q202 12 202 -17Q202 -36 208.0 -46.0Q214 -56 232 -56Q257 -56 287.5 -32.5Q318 -9 349.5 31.0Q381 71 410.5 119.5Q440 168 464.5 219.0Q489 270 505.5 316.0Q522 362 526 395Q559 395 572.5 378.0Q586 361 586 346Q586 330 573.0 297.0Q560 264 542 223Q527 187 511.5 146.0Q496 105 485.5 64.0Q475 23 475 -14Q475 -33 480.0 -44.5Q485 -56 503 -56Q531 -56 568.0 -27.5Q605 1 644.5 50.5Q684 100 721.5 162.0Q759 224 789.0 291.5Q819 359 837.0 424.0Q855 489 855 544Q855 594 840.0 617.5Q825 641 800 648Q814 672 829.5 683.0Q845 694 858 694Q879 694 899.0 667.0Q919 640 919 583Q919 528 898.5 458.0Q878 388 843.0 312.5Q808 237 763.0 166.0Q718 95 669.0 38.0Q620 -19 572.0 -53.0Q524 -87 483 -87Q464 -87 444.0 -79.0Q424 -71 410.5 -54.5Q397 -38 397 -12Q397 3 402.5 26.5Q408 50 417 78Q366 6 312.5 -40.5Q259 -87 210 -87Z" fill="#2D4A3E"/></g><g transform="translate(906, 0)"><path d="M72 -26Q33 -26 14.0 -1.5Q-5 23 -5 58Q-5 81 3.5 116.0Q12 151 26.0 189.5Q40 228 58.5 262.0Q77 296 98.0 317.5Q119 339 139 339Q148 339 154.5 333.5Q161 328 161 317Q161 305 145.5 278.0Q130 251 109.0 216.0Q88 181 72.5 142.5Q57 104 57 69Q57 33 69.0 21.0Q81 9 106 9Q140 9 178.5 43.0Q217 77 260 162L269 152Q240 66 185.5 20.0Q131 -26 72 -26ZM192 432Q176 432 163.5 440.0Q151 448 151 465Q151 486 175.5 501.5Q200 517 224 517Q239 517 248.0 510.0Q257 503 257 486Q257 467 236.5 449.5Q216 432 192 432Z" fill="#2D4A3E"/></g><g transform="translate(1147, 0)"><path d="M83 -30Q40 -30 21.5 -0.5Q3 29 3 73Q3 121 21.0 187.0Q39 253 68.5 326.0Q98 399 133.0 468.5Q168 538 203.0 595.0Q238 652 267.5 686.0Q297 720 314 720Q325 720 332.0 707.5Q339 695 343.0 677.5Q347 660 347 646Q347 619 333.5 575.5Q320 532 295.5 478.5Q271 425 237.5 370.5Q204 316 164.5 266.0Q125 216 81 180Q75 153 71.5 127.5Q68 102 68 79Q68 40 79.0 21.0Q90 2 112 2Q139 2 165.5 26.0Q192 50 215.5 86.5Q239 123 256 162L271 154Q231 69 184.0 19.5Q137 -30 83 -30ZM90 214Q125 249 158.0 294.5Q191 340 219.5 389.0Q248 438 270.0 484.0Q292 530 304.0 566.5Q316 603 316 623Q316 633 313.5 636.0Q311 639 309 639Q301 639 281.5 613.5Q262 588 236.0 545.0Q210 502 183.0 447.0Q156 392 131.5 332.0Q107 272 90 214Z" fill="#2D4A3E"/></g><g transform="translate(1383, 0)"><path d="M59 -30Q42 -30 24.5 -21.5Q7 -13 -4.5 6.0Q-16 25 -16 54Q-16 87 0.0 128.0Q16 169 43.0 209.5Q70 250 105.0 284.5Q140 319 178.0 339.5Q216 360 253 360Q274 360 285.5 352.5Q297 345 297 329Q297 325 296.5 322.0Q296 319 295 315Q290 323 280.5 326.5Q271 330 257 330Q225 330 194.5 310.5Q164 291 138.5 259.5Q113 228 94.0 192.0Q75 156 64.5 122.5Q54 89 54 66Q54 44 64.0 31.0Q74 18 90 18Q117 18 155.5 52.0Q194 86 234.0 148.0Q274 210 306 293Q328 351 351.5 411.0Q375 471 399.0 526.5Q423 582 445.5 625.5Q468 669 488.5 694.5Q509 720 525 720Q533 720 539.0 713.5Q545 707 545 697Q545 681 528.5 642.5Q512 604 485.5 550.5Q459 497 430.0 434.0Q401 371 374.5 306.0Q348 241 331.5 180.5Q315 120 315 70Q315 42 318.0 28.0Q321 14 338 14Q359 14 387.0 32.0Q415 50 443.0 83.0Q471 116 492 162L504 153Q485 102 452.0 61.5Q419 21 381.5 -2.5Q344 -26 310 -26Q273 -26 258.5 -1.5Q244 23 244 49Q244 66 249.0 94.0Q254 122 263 156Q231 103 195.0 60.5Q159 18 124.5 -6.0Q90 -30 59 -30Z" fill="#2D4A3E"/></g><g transform="translate(1856, 0)"><path d="M83 -30Q40 -30 21.5 -0.5Q3 29 3 73Q3 121 21.0 187.0Q39 253 68.5 326.0Q98 399 133.0 468.5Q168 538 203.0 595.0Q238 652 267.5 686.0Q297 720 314 720Q325 720 332.0 707.5Q339 695 343.0 677.5Q347 660 347 646Q347 619 333.5 575.5Q320 532 295.5 478.5Q271 425 237.5 370.5Q204 316 164.5 266.0Q125 216 81 180Q75 153 71.5 127.5Q68 102 68 79Q68 40 79.0 21.0Q90 2 112 2Q139 2 165.5 26.0Q192 50 215.5 86.5Q239 123 256 162L271 154Q231 69 184.0 19.5Q137 -30 83 -30ZM90 214Q125 249 158.0 294.5Q191 340 219.5 389.0Q248 438 270.0 484.0Q292 530 304.0 566.5Q316 603 316 623Q316 633 313.5 636.0Q311 639 309 639Q301 639 281.5 613.5Q262 588 236.0 545.0Q210 502 183.0 447.0Q156 392 131.5 332.0Q107 272 90 214Z" fill="#2D4A3E"/></g><g transform="translate(2092, 0)"><path d="M43 -280Q18 -280 -1.0 -266.5Q-20 -253 -20 -227Q-20 -195 -4.0 -170.0Q12 -145 39.0 -124.0Q66 -103 101.0 -84.0Q136 -65 174 -46Q188 -9 202.5 36.5Q217 82 230 137Q198 85 161.5 47.5Q125 10 84 10Q65 10 46.5 18.5Q28 27 16.0 45.0Q4 63 4 91Q4 119 13.5 156.0Q23 193 37.0 228.0Q51 263 66.0 286.0Q81 309 92 309Q96 309 106.5 306.0Q117 303 126.5 297.5Q136 292 136 286Q127 273 116.0 249.0Q105 225 94.5 195.5Q84 166 77.0 138.0Q70 110 70 90Q70 72 78.0 61.0Q86 50 106 50Q125 50 148.5 68.5Q172 87 195.5 116.0Q219 145 239 178Q242 189 244.5 200.5Q247 212 249 224Q252 238 263.5 256.5Q275 275 300 275Q305 275 310.0 274.5Q315 274 321 272Q321 256 311.5 212.5Q302 169 284.5 111.0Q267 53 243 -8Q290 10 335.0 51.5Q380 93 408 162L421 152Q406 104 375.5 68.5Q345 33 307.0 7.5Q269 -18 232 -35Q206 -99 175.5 -155.0Q145 -211 111.5 -245.5Q78 -280 43 -280ZM38 -248Q53 -248 88.5 -208.5Q124 -169 164 -70Q123 -92 88.0 -113.5Q53 -135 32.0 -160.0Q11 -185 11 -218Q11 -226 17.0 -237.0Q23 -248 38 -248Z" fill="#2D4A3E"/></g><g transform="translate(2731, 0)"><path d="M213 -87Q156 -87 113.0 -56.5Q70 -26 45.5 30.0Q21 86 21 161Q21 238 45.5 317.0Q70 396 112.0 468.0Q154 540 207.0 596.5Q260 653 319.0 686.0Q378 719 435 719Q454 719 469.0 716.0Q484 713 495 707Q487 707 485.5 707.0Q484 707 483 707Q431 707 378.0 672.5Q325 638 277.0 579.5Q229 521 191.0 448.5Q153 376 131.0 298.0Q109 220 109 147Q109 94 122.5 48.0Q136 2 166.0 -25.5Q196 -53 243 -53Q299 -53 348.0 -18.5Q397 16 436.5 75.0Q476 134 504.5 206.5Q533 279 548.5 356.5Q564 434 564 505Q564 533 560.0 565.0Q556 597 546.0 620.0Q536 643 519 643Q501 643 480.0 620.5Q459 598 439.5 564.0Q420 530 405.0 493.5Q390 457 384 429Q359 435 347.5 448.5Q336 462 336 478Q336 505 354.5 537.5Q373 570 401.5 600.5Q430 631 461.0 650.5Q492 670 517 670Q543 670 559.5 651.0Q576 632 585.5 602.5Q595 573 598.5 539.5Q602 506 602 477Q602 368 577.5 278.5Q553 189 511.5 121.0Q470 53 419.0 6.5Q368 -40 314.5 -63.5Q261 -87 213 -87Z" fill="#2D4A3E"/></g><g transform="translate(3354, 0)"><path d="M323 -20Q288 -20 270.5 -2.0Q253 16 253 44Q253 65 260.5 88.0Q268 111 275.0 135.5Q282 160 282 183Q282 211 270.5 221.5Q259 232 242 232Q211 232 179.0 206.5Q147 181 117.0 141.5Q87 102 61.0 60.0Q35 18 15 -15Q-1 -15 -15.5 -9.5Q-30 -4 -38 7Q-38 12 -27.5 38.0Q-17 64 -3.0 102.0Q11 140 22.0 180.0Q33 220 33 253Q39 260 52.0 267.0Q65 274 79 274Q106 274 106 248Q106 232 97.0 194.5Q88 157 74 116Q101 157 134.5 197.5Q168 238 206.0 265.0Q244 292 282 292Q321 292 338.5 264.0Q356 236 356 202Q356 171 346.0 144.5Q336 118 325.5 93.5Q315 69 315 44Q315 23 323.5 14.5Q332 6 345 6Q370 6 395.0 29.5Q420 53 443.5 89.0Q467 125 485 162L496 149Q475 100 449.0 62.0Q423 24 392.0 2.0Q361 -20 323 -20Z" fill="#2D4A3E"/></g><g transform="translate(3820, 0)"><path d="M108 -44Q47 -44 16.5 -10.5Q-14 23 -14 72Q-14 117 8.5 167.0Q31 217 68.5 261.0Q106 305 151.0 332.5Q196 360 240 360Q263 360 282.5 348.0Q302 336 302 299Q302 261 279.5 227.5Q257 194 220.5 168.0Q184 142 140.5 125.5Q97 109 54 105Q52 95 51.0 86.0Q50 77 50 69Q50 54 53.5 39.0Q57 24 66.0 11.5Q75 -1 90.5 -8.0Q106 -15 129 -15Q172 -15 214.0 9.5Q256 34 292.0 74.0Q328 114 353 162L365 153Q338 93 296.5 49.0Q255 5 206.5 -19.5Q158 -44 108 -44ZM59 124Q86 133 120.0 150.5Q154 168 185.5 192.0Q217 216 237.5 245.0Q258 274 258 306Q258 317 254.0 323.0Q250 329 237 329Q213 329 186.0 310.5Q159 292 134.0 262.0Q109 232 89.0 196.0Q69 160 59 124Z" fill="#2D4A3E"/></g><g transform="translate(4153, 0)"><path d="M105 -51Q58 -51 30.5 -30.5Q3 -10 -8.5 20.0Q-20 50 -20 80Q-20 110 -12.0 126.0Q-4 142 7.5 150.0Q19 158 29.5 162.0Q40 166 44 170Q74 203 99.0 239.0Q124 275 143 315V327Q143 364 155.5 379.5Q168 395 182 395Q190 395 194.0 391.0Q198 387 198 382Q198 377 195.0 366.0Q192 355 192 338Q192 305 205.0 266.5Q218 228 231.0 185.5Q244 143 244 97Q244 84 242.5 71.5Q241 59 238 48Q273 54 304.0 79.5Q335 105 364 161L373 151Q354 96 316.0 67.5Q278 39 233 32Q217 -11 182.5 -31.0Q148 -51 105 -51ZM107 -16Q119 -16 139.0 -8.0Q159 0 170 33Q128 41 95.5 66.0Q63 91 47 116Q25 115 25 81Q25 45 46.5 14.5Q68 -16 107 -16ZM175 49Q177 59 178.0 70.0Q179 81 179 96Q179 143 167.5 189.5Q156 236 148 277Q125 239 99.5 204.5Q74 170 51 147Q66 115 97.5 87.0Q129 59 175 49Z" fill="#2D4A3E"/></g>
  </g>
</svg>